<?xml version="1.0" encoding="utf-8"?>
<!-- Generator: Adobe Illustrator 24.0.3, SVG Export Plug-In . SVG Version: 6.00 Build 0)  -->
<svg version="1.1" id="Ebene_1" xmlns="http://www.w3.org/2000/svg" xmlns:xlink="http://www.w3.org/1999/xlink" x="0px" y="0px"
	 viewBox="0 0 692 259" style="enable-background:new 0 0 692 259;" xml:space="preserve">
<style type="text/css">
	.st0{fill:#C5073D;}
</style>
<g>
	<g>
		<g>
			<path class="st0" d="M385.9,106.8c-5.4-4.9-15.2-8.3-24.1-8.3c-13.6,0-27.2,5.7-27.5,19.9c-0.3,14.7,14.3,19.8,26,20.5
				c8.5,0.4,11.8,2.9,11.7,5.8c0.1,3.3-5.3,6.5-10.7,6.2c-6.6-0.2-14-1.8-21.6-8.3l-8.5,11.8c10.5,9.1,20.3,10.8,29.6,10.9
				c20,0.3,27.8-10.2,27.8-20.3c0.3-16.4-14.7-20-27-20.6c-6.1-0.2-10.4-2.2-10.3-5.6c0.1-3,4.3-6.2,10.3-6.1
				c5.7,0.1,11.2,1.7,15.8,5.1L385.9,106.8z"/>
			<path class="st0" d="M266.6,124.7h-29.9c0.5-5.1,5.7-11.8,14.7-11.8C261.2,112.9,266.6,119.2,266.6,124.7 M251.6,98.4
				c-19.8,0-32.3,14.3-32.3,32.9c0,19.1,12.1,33.9,34.1,33.9c9.1,0,18.1-2.9,25.8-9.7l-9.7-11c-4.3,3.9-11.2,5.9-16,5.9
				c-10,0-16.6-6.3-17.5-13.1H282C285.8,111.4,272.3,98.4,251.6,98.4"/>
			<path class="st0" d="M514.4,131.8c0,8.9-4.5,17.8-15.2,17.8c-10.6,0-15.2-9.3-15.2-17.8c0-8.5,4.7-17.8,15.2-17.8
				C509.8,114,514.4,123.3,514.4,131.8 M532.4,131.8c0-21.4-14.9-33.4-33.2-33.4c-18.3,0-33.2,12-33.2,33.4
				c0,21.4,14.9,33.4,33.2,33.4C517.5,165.2,532.4,152.1,532.4,131.8"/>
			<path class="st0" d="M333.8,100.7c-2.3-1.2-5.2-2.2-8.3-2.2c-5.9,0-12.8,4-16.7,9.7l-3.3-8.5h-14.1v64.2h18l0.1-33.3
				c0-9.6,6-15.2,13.6-15.2c0.7,0,1.9,0.2,3,0.5L333.8,100.7z"/>
			<path class="st0" d="M214.2,99.7h-14.3V84.1l-18,4.5V141c0,19,9.1,24.2,21.4,24.2c5.9,0,9.7-1.4,15.9-4.5l-6.2-12.4
				c-2,0.9-4.8,1.8-6.6,1.8c-3.3,0-6.6-1.1-6.6-9.3v-25.3h14.3V99.7z"/>
			<rect x="77.9" y="99.7" class="st0" width="18.4" height="64.2"/>
			<path class="st0" d="M170.4,163.9v-34c0-24.9-12.3-31.5-26.1-31.5c-6.9,0-13.4,2.4-17.8,9.6l-3-8.3h-14.1v64.2h18v-34.2
				c0-9.4,4.7-15.2,13-15.1c8.5,0,12.1,5.2,12.1,15.1v34.2H170.4z"/>
			<path class="st0" d="M457.7,163.9v-34c0-24.9-12.3-31.5-26.1-31.5c-6.3,0-14.4,4-17,9.3V82.6h-18v81.3h18v-34.2
				c0-9.4,4.7-15.2,13-15.1c8.5,0,12.1,5.2,12.1,15.1v34.2H457.7z"/>
			<path class="st0" d="M588.5,131.3c0,8.8-4.4,17.4-15.1,17.4c-10.6,0-15.2-9-15.2-17.4c0-8.4,4.7-17.3,15.2-17.3
				C584,114,588.5,123,588.5,131.3 M606.1,131.3c0-21.1-12.5-32.7-30.6-32.7c-7.1,0-13.5,2.9-18.5,7.5l-2.2-6.4h-13.9v77.1h18v-18.5
				c4.7,3.8,10.3,6.1,16.6,6.1C593.5,164.3,606.1,151.4,606.1,131.3"/>
		</g>
	</g>
	<g>
		<path class="st0" d="M613.1,85.3c-5.7,0-8.8,4.2-8.8,8.9c0,4.8,3.1,8.9,8.8,8.9c5.7,0,8.8-4.2,8.8-8.9
			C621.9,89.5,618.8,85.3,613.1,85.3 M613.1,102.1c-4.9,0-7.7-3.5-7.7-7.8c0-4.4,2.8-7.8,7.7-7.8c4.9,0,7.7,3.5,7.7,7.8
			C620.8,98.6,618,102.1,613.1,102.1"/>
		<path class="st0" d="M614.9,94.8c1.6-0.4,2.5-1.5,2.5-2.9c0-0.9-0.3-1.6-0.9-2.1c-0.7-0.6-1.8-0.9-3.2-0.9h0h-3.7v10.4h1.4V95h2.3
			c0,0,0.1,0,0.1,0l2.5,4.3h1.6L614.9,94.8z M611,90.2h2.2c2,0,2.8,0.5,2.8,1.8c0,1.7-1.9,1.9-2.8,1.9H611V90.2z"/>
	</g>
</g>
</svg>
